<?xml version="1.0" encoding="UTF-8"?>
<svg xmlns="http://www.w3.org/2000/svg" viewBox="0 0 246 179" width="246" height="179">
<path d="M164 63.77C161.86 64.31 157.72 62.75 157.85 66.5C160.22 68.5 162.27 66.95 164.99 66.94C165.22 67.13 165.44 67.31 165.67 67.5C166.13 69.28 166.6 71.06 167.07 72.83C166.98 73.28 166.88 73.72 166.79 74.17C166.53 74.24 166.26 74.31 166 74.39C163.8 75.03 160.38 72.67 159.17 75.83C159.7 79.83 165.64 77.45 167.67 78.35C167.81 79.96 167.96 81.56 168.1 83.17C167.61 83.69 167.13 84.2 166.64 84.72C164.11 85.78 160.54 83.34 157.83 85.18C156.75 89.48 164.02 87.89 165.96 89C166.55 91.75 163.3 95.06 164.1 97.17C161.98 98.63 161.76 100.48 161.1 102.5C160.34 103.11 159.59 103.72 158.83 104.33C158.91 104.89 158.98 105.45 159.06 106.01C158.24 107.36 156.9 107.68 157.24 109.5C159.68 110.91 160.56 108.54 162.67 108.13C162.84 108.06 163 107.99 163.17 107.92C164 108.67 164.82 109.42 165.65 110.17C165.55 110.36 165.44 110.55 165.33 110.74C163.37 111.48 160.61 112.25 159.95 114.5C161.54 117.84 166.04 114.45 167.2 112.39C167.38 112.43 167.56 112.46 167.74 112.5C168.61 113.5 169.48 114.5 170.35 115.5C170.25 115.67 170.15 115.83 170.06 116C167.9 116.88 165.37 116.03 165.28 119.5C167.74 121.47 170.08 119.6 171.22 117.25C172.52 119.11 173.81 120.97 175.1 122.83C175.01 123.33 174.92 123.83 174.83 124.33C177.69 127.31 177.8 135.04 175.89 138.49C175.48 139.24 174.91 139.37 174.66 140.31C174.57 140.48 174.48 140.66 174.39 140.83C173.17 142.45 171.95 144.07 170.72 145.69C170.73 146.94 170.19 146.54 169.33 147.17C167.89 148.5 166.45 149.83 165.01 151.17C164.86 152.64 164.89 153.45 163.67 154.5C154.05 156.42 139.97 155.81 130.16 154.77C122.04 153.91 113.35 154.87 105.17 154.81C98.96 154.76 85.12 156.51 80.06 154.83C79.82 153.94 79.58 153.06 79.33 152.17C77.78 151.36 76.22 150.55 74.67 149.75C73.43 147.7 70.29 146.08 68.67 143.5C68.54 143.78 68.42 144.06 68.29 144.33C66.19 141.73 66.54 137.24 66.89 133.83C67.27 133.5 67.64 133.17 68.02 132.83C68.04 132 68.06 131.17 68.09 130.33C68.17 130.94 68.25 131.56 68.33 132.17C69.83 132.46 71.33 132.75 72.83 133.05C73.97 131.25 71.38 129.56 70 128.67C69.63 128.39 69.27 128.11 68.9 127.83C69.28 127.28 69.66 126.72 70.04 126.17C70.38 126.09 70.71 126.02 71.05 125.94C72.88 125.94 73.82 127.65 75.83 126.71C76.32 124.2 73.99 124.14 72.67 122.66C72.83 122.33 73 122 73.17 121.67C73.59 121.11 74.01 120.56 74.43 120C76.23 120.65 78.03 121.3 79.83 121.95C80.2 121.47 80.57 120.98 80.95 120.5C79.52 119.24 78.09 117.99 76.67 116.73C78.11 114.88 79.56 113.02 81 111.17C81.06 110.56 81.11 109.94 81.17 109.33C80.56 108.61 79.94 107.89 79.33 107.17C78.52 106.61 77.71 106.06 76.9 105.5C77.82 103.17 73.13 99.27 73.27 96.25C75.43 95.76 77.42 96.45 78.94 94.5C78.87 93.83 78.8 93.17 78.74 92.5C76.5 90.79 74.67 92.25 72.29 91.86C71.82 91.63 71.36 91.4 70.9 91.17C71.28 89.83 71.15 88.92 70 88.17C70.12 87.19 70.24 86.2 70.36 85.22C72.77 85.08 76.37 85.76 78.11 83.5C76.35 80.23 72.93 81.4 70.21 82.01C70.23 79.99 70.25 77.97 70.26 75.96C72.53 76.43 79.33 77.8 79.99 74.17C78.61 71.01 72.91 73.36 70.62 73.86C70.38 72.85 70.14 71.84 69.9 70.83C72.97 68.73 72.8 63.36 69.98 61.17C70.46 58.71 67.65 53.82 68.34 49.82C69.46 43.34 74.05 42.06 78.17 38.12C80.46 38.2 81.65 36.71 84.17 36.87C85.94 37.51 87.72 38.15 89.5 38.78C90.1 39.24 90.69 39.71 91.29 40.17C91.47 40.35 91.65 40.52 91.83 40.7C92.61 41.91 93.39 43.12 94.17 44.33C96.35 44.45 100.92 43.76 102.17 41.9C103.41 42.44 113.82 41.02 114.5 39.9C115.52 41.08 117.62 39.91 119.16 40.07C121.91 40.37 126.68 42.17 129.5 40.93C130.5 39.59 131.5 38.24 132.5 36.9C133.79 37.14 140.09 32.78 142.84 32.34C146.88 31.71 152.54 32.38 155.83 34.84C157.3 35.94 158.49 37.67 160.1 38.5C159.76 40.7 161.07 43.66 160.98 46.17C160.88 48.83 159.32 51.49 159.77 53.77C160.51 57.45 164.05 59.78 164 63.77ZM151.17 49.33C154.7 48.33 154.87 44.05 152.64 41.52C149.88 38.38 145.78 37.63 142.11 39.8C140.86 40.54 140.13 40.84 139.96 42.5C140.42 43.06 140.88 43.61 141.33 44.17C142.83 44.74 144.33 45.32 145.83 45.9C146.68 47.38 149.48 49.17 151.17 49.33ZM110.17 42C109.2 42.5 108.23 43 107.27 43.5C108.89 45.1 110.78 44.07 112.77 44.5C112.77 45.24 112.77 45.98 112.77 46.72C111.51 46.98 110.25 47.24 108.98 47.5C109.35 49.27 111.08 49.09 112.5 48.41C112.91 49.11 113.33 49.8 113.74 50.5C112.11 51.17 110.48 51.83 108.85 52.5C111.06 54.21 116.36 52.39 118.77 51.5C117.57 51.21 116.37 50.92 115.17 50.63C115.17 49.92 115.17 49.21 115.17 48.5C116.67 48.17 118.18 47.83 119.69 47.5C118.16 47.17 116.64 46.83 115.12 46.5C115.12 45.74 115.12 44.99 115.12 44.23C116.35 43.75 118.19 44.11 118.69 42.83C115.85 42.56 113.01 42.28 110.17 42ZM85.17 44.07C81.98 43.94 76 46.23 77.06 50.17C75.52 51.4 76.1 53.87 77.17 55.33C77.72 55.54 78.28 55.75 78.83 55.95C81.53 54.77 88.27 49.83 88.83 47C88.39 46.36 87.94 45.73 87.5 45.09C86.72 44.75 85.94 44.41 85.17 44.07ZM129.38 65.17C127.72 64.83 126.91 65.9 126.8 67.5C127.62 68.91 129.66 69.68 130.97 68.5C129.33 67.1 128.58 67.62 129.38 65.17ZM105.92 72.5C105.82 70.61 103.35 68.71 101.97 70.5C102.62 70.83 103.27 71.17 103.92 71.5C103.3 72.5 102.67 73.5 102.05 74.5C103.44 75.01 105.01 73.65 105.92 72.5ZM141.6 70.17C136.52 70.5 131.91 75.63 136.19 80.3C137.85 82.11 140.24 82.46 142.51 82.94C144.13 83.28 146.19 83.77 147.75 82.92C155.22 78.88 147.84 69.76 141.6 70.17ZM117.01 82.38C115.62 82.7 114.23 83.01 112.83 83.33C111.72 84.51 112.6 86.89 112.97 88.52C113.25 89.76 113.38 91.54 114.29 92.54C115.97 94.38 123.97 93.32 125.65 91.48C127.59 89.37 126.1 83.61 126.67 81.17C125.94 81.44 125.22 81.72 124.5 82C123.1 81.87 121.7 81.74 120.29 81.61C119.83 81.24 119.36 80.87 118.89 80.5C119.5 78.36 122.49 77.44 122.33 74.83C122.12 71.34 114.96 73.29 113.28 74.5C112.29 77.68 115.81 78.44 117.83 79.57C117.94 80.38 118.06 81.19 118.17 82C117.78 82.13 117.4 82.25 117.01 82.38ZM99.5 76.95C92.16 77.12 82.39 80.88 88.06 90.1C90.11 93.43 97.33 90.5 99.36 88.53C100.44 87.49 100.92 86.13 101.5 84.8C102.89 85.07 104.18 85.8 104.12 83.85C103.47 83.85 102.82 83.85 102.17 83.85C102.81 82.73 103.46 81.62 104.11 80.5C102.57 79.32 101.04 78.13 99.5 76.95ZM126.99 110.41C126.16 110.99 125.33 111.57 124.5 112.15C122.96 110.55 121.79 108.54 119.96 107.2C118.92 106.44 117.56 106.37 116.5 105.54C115.72 105.86 114.95 106.18 114.17 106.5C115.98 107.48 118.29 107.71 119.9 109.26C125.28 114.4 124.42 124.32 119.81 129.65C118.06 131.66 113.1 132.54 112.53 134.5C117.31 136.81 120.31 129.56 123.5 127.98C124.59 129.64 125.3 131.58 127.43 131.5C126.23 130.39 124.63 128 124.13 126.42C123.73 125.14 124.78 123.73 124.94 122.5C125.28 119.83 124.35 116.45 125.14 113.94C125.55 112.65 126.66 111.77 126.99 110.41C129.6 109.14 132.22 107.87 134.83 106.6C134.46 106.23 134.09 105.87 133.72 105.5C134.42 103.87 135.13 102.25 135.83 100.62C133.21 102.22 133.79 105.3 131.64 106.78C129.99 107.92 127.44 108.02 126.99 110.41ZM109.83 101.2C108.61 103.42 107.39 105.63 106.17 107.84C107.77 106.38 110.46 103.67 109.83 101.2ZM143.67 109.17C144.27 107.68 141.78 103.1 140.31 102.5C140.13 104.34 142.1 108.15 143.67 109.17ZM99.65 112.5C97.67 111.46 90.71 114.72 88.26 115.5C89.64 115.99 90.79 116.21 91.83 115C94.13 115.77 97.72 113.79 99.65 112.5ZM160.58 119.5C158.97 118.66 153.71 115.14 152.56 116.5C154.59 117.54 158.4 121.07 160.58 119.5ZM105.5 132.91C102.58 134.37 105.2 138.18 107.03 139.5C106.19 140.44 105.34 141.39 104.5 142.33C102.81 140.72 101.12 139.11 99.43 137.5C98.29 139.85 100.49 142.2 102.17 143.57C101.08 144.55 99.99 145.52 98.91 146.5C101.24 147.82 107.77 141.43 109.36 139.55C109.98 138.82 111.98 136.71 111.5 136.13C110.83 136.68 110.17 137.22 109.5 137.76C108.17 136.15 106.83 134.53 105.5 132.91ZM141.96 134.5C138.91 133.46 137.81 137.23 135.5 137.98C134.83 137.31 134.17 136.63 133.5 135.96C133.2 139.38 140.11 145.39 142.77 147.38C144.14 148.4 146.05 150.57 147.74 149.5C146.46 148.5 145.19 147.5 143.91 146.5C145.37 144.5 149.08 143.54 148.5 140.39C146.22 139.23 142.98 142.17 141.5 143.93C139.81 143.68 138.57 142.04 137.99 140.5C139.81 139.09 142.95 137.48 141.96 134.5Z" fill="#f9b67b" fill-rule="evenodd" stroke="#f9b67b" stroke-width="0.25" stroke-linejoin="round"/>
<path d="M110.17 42C113.01 42.28 115.85 42.56 118.69 42.83C118.19 44.11 116.35 43.75 115.12 44.23C115.12 44.99 115.12 45.74 115.12 46.5C116.64 46.83 118.16 47.17 119.69 47.5C118.18 47.83 116.67 48.17 115.17 48.5C115.17 49.21 115.17 49.92 115.17 50.63C116.37 50.92 117.57 51.21 118.77 51.5C116.36 52.39 111.06 54.21 108.85 52.5C110.48 51.83 112.11 51.17 113.74 50.5C113.33 49.8 112.91 49.11 112.5 48.41C111.08 49.09 109.35 49.27 108.98 47.5C110.25 47.24 111.51 46.98 112.77 46.72C112.77 45.98 112.77 45.24 112.77 44.5C110.78 44.07 108.89 45.1 107.27 43.5C108.23 43 109.2 42.5 110.17 42ZM164 63.77C164.28 63.82 164.56 63.88 164.83 63.93C164.89 64.94 164.94 65.94 164.99 66.94C162.27 66.95 160.22 68.5 157.85 66.5C157.72 62.75 161.86 64.31 164 63.77ZM129.38 65.17C128.58 67.62 129.33 67.1 130.97 68.5C129.66 69.68 127.62 68.91 126.8 67.5C126.91 65.9 127.72 64.83 129.38 65.17ZM105.92 72.5C105.01 73.65 103.44 75.01 102.05 74.5C102.67 73.5 103.3 72.5 103.92 71.5C103.27 71.17 102.62 70.83 101.97 70.5C103.35 68.71 105.82 70.61 105.92 72.5ZM70.26 75.96C70.34 75.25 70.42 74.55 70.5 73.85C70.54 73.85 70.58 73.86 70.62 73.86C72.91 73.36 78.61 71.01 79.99 74.17C79.33 77.8 72.53 76.43 70.26 75.96ZM120.29 81.61C121.84 81.91 123.38 82.2 124.92 82.5C122.28 82.46 119.65 82.42 117.01 82.38C117.4 82.25 117.78 82.13 118.17 82C118.06 81.19 117.94 80.38 117.83 79.57C115.81 78.44 112.29 77.68 113.28 74.5C114.96 73.29 122.12 71.34 122.33 74.83C122.49 77.44 119.5 78.36 118.89 80.5C119.36 80.87 119.83 81.24 120.29 81.61ZM166 74.39C167.49 75.4 168.48 76.5 167.67 78.35C165.64 77.45 159.7 79.83 159.17 75.83C160.38 72.67 163.8 75.03 166 74.39ZM70.36 85.22C70.31 84.15 70.26 83.08 70.21 82.01C72.93 81.4 76.35 80.23 78.11 83.5C76.37 85.76 72.77 85.08 70.36 85.22ZM166.64 84.72C166.7 85.92 166.77 87.11 166.83 88.31C166.54 88.54 166.25 88.77 165.96 89C164.02 87.89 156.75 89.48 157.83 85.18C160.54 83.34 164.11 85.78 166.64 84.72ZM73.27 96.25C72.58 95.34 71.9 94.42 71.22 93.5C71.57 92.95 71.93 92.41 72.29 91.86C74.67 92.25 76.5 90.79 78.74 92.5C78.8 93.17 78.87 93.83 78.94 94.5C77.42 96.45 75.43 95.76 73.27 96.25ZM126.99 110.41C127.44 108.02 129.99 107.92 131.64 106.78C133.79 105.3 133.21 102.22 135.83 100.62C135.13 102.25 134.42 103.87 133.72 105.5C134.09 105.87 134.46 106.23 134.83 106.6C132.22 107.87 129.6 109.14 126.99 110.41ZM109.83 101.2C110.46 103.67 107.77 106.38 106.17 107.84C107.39 105.63 108.61 103.42 109.83 101.2ZM143.67 109.17C142.1 108.15 140.13 104.34 140.31 102.5C141.78 103.1 144.27 107.68 143.67 109.17ZM126.99 110.41C126.66 111.77 125.55 112.65 125.14 113.94C124.35 116.45 125.28 119.83 124.94 122.5C124.78 123.73 123.73 125.14 124.13 126.42C124.63 128 126.23 130.39 127.43 131.5C125.3 131.58 124.59 129.64 123.5 127.98C120.31 129.56 117.31 136.81 112.53 134.5C113.1 132.54 118.06 131.66 119.81 129.65C124.42 124.32 125.28 114.4 119.9 109.26C118.29 107.71 115.98 107.48 114.17 106.5C114.95 106.18 115.72 105.86 116.5 105.54C117.56 106.37 118.92 106.44 119.96 107.2C121.79 108.54 122.96 110.55 124.5 112.15C125.33 111.57 126.16 110.99 126.99 110.41ZM159.06 106.01C160.85 106.23 162.85 105.76 162.67 108.13C160.56 108.54 159.68 110.91 157.24 109.5C156.9 107.68 158.24 107.36 159.06 106.01ZM165.33 110.74C165.95 111.29 166.58 111.84 167.2 112.39C166.04 114.45 161.54 117.84 159.95 114.5C160.61 112.25 163.37 111.48 165.33 110.74ZM99.65 112.5C97.72 113.79 94.13 115.77 91.83 115C90.79 116.21 89.64 115.99 88.26 115.5C90.71 114.72 97.67 111.46 99.65 112.5ZM160.58 119.5C158.4 121.07 154.59 117.54 152.56 116.5C153.71 115.14 158.97 118.66 160.58 119.5ZM170.06 116C170.44 116.41 170.83 116.83 171.22 117.25C170.08 119.6 167.74 121.47 165.28 119.5C165.37 116.03 167.9 116.88 170.06 116ZM76.67 116.73C78.09 117.99 79.52 119.24 80.95 120.5C80.57 120.98 80.2 121.47 79.83 121.95C78.03 121.3 76.23 120.65 74.43 120C74.34 119.5 74.26 119 74.18 118.5C75.01 117.91 75.84 117.32 76.67 116.73ZM72.67 122.66C73.99 124.14 76.32 124.2 75.83 126.71C73.82 127.65 72.88 125.94 71.05 125.94C71.4 124.91 71.76 123.87 72.11 122.83C72.29 122.78 72.48 122.72 72.67 122.66ZM70 128.67C71.38 129.56 73.97 131.25 72.83 133.05C71.33 132.75 69.83 132.46 68.33 132.17C68.25 131.56 68.17 130.94 68.09 130.33C68.1 130.06 68.11 129.78 68.13 129.5C68.59 129.17 69.04 128.85 69.5 128.52C69.67 128.57 69.83 128.62 70 128.67ZM105.5 132.91C106.83 134.53 108.17 136.15 109.5 137.76C110.17 137.22 110.83 136.68 111.5 136.13C111.98 136.71 109.98 138.82 109.36 139.55C107.77 141.43 101.24 147.82 98.91 146.5C99.99 145.52 101.08 144.55 102.17 143.57C100.49 142.2 98.29 139.85 99.43 137.5C101.12 139.11 102.81 140.72 104.5 142.33C105.34 141.39 106.19 140.44 107.03 139.5C105.2 138.18 102.58 134.37 105.5 132.91ZM141.96 134.5C142.95 137.48 139.81 139.09 137.99 140.5C138.57 142.04 139.81 143.68 141.5 143.93C142.98 142.17 146.22 139.23 148.5 140.39C149.08 143.54 145.37 144.5 143.91 146.5C145.19 147.5 146.46 148.5 147.74 149.5C146.05 150.57 144.14 148.4 142.77 147.38C140.11 145.39 133.2 139.38 133.5 135.96C134.17 136.63 134.83 137.31 135.5 137.98C137.81 137.23 138.91 133.46 141.96 134.5ZM174.66 140.31C174.69 140.59 174.71 140.88 174.74 141.17C173.31 142.5 172.92 145.35 170.72 145.69C171.95 144.07 173.17 142.45 174.39 140.83C174.48 140.66 174.57 140.48 174.66 140.31ZM74.67 149.75C71.02 149.32 70.62 146.25 68.29 144.33C68.42 144.06 68.54 143.78 68.67 143.5C70.29 146.08 73.43 147.7 74.67 149.75Z" fill="#6b3d28" fill-rule="evenodd" stroke="#6b3d28" stroke-width="0.25" stroke-linejoin="round"/>
<path d="M141.6 70.17C147.84 69.76 155.22 78.88 147.75 82.92C146.19 83.77 144.13 83.28 142.51 82.94C140.24 82.46 137.85 82.11 136.19 80.3C131.91 75.63 136.52 70.5 141.6 70.17ZM99.5 76.95C101.04 78.13 102.57 79.32 104.11 80.5C103.46 81.62 102.81 82.73 102.17 83.85C102.82 83.85 103.47 83.85 104.12 83.85C104.18 85.8 102.89 85.07 101.5 84.8C100.92 86.13 100.44 87.49 99.36 88.53C97.33 90.5 90.11 93.43 88.06 90.1C82.39 80.88 92.16 77.12 99.5 76.95ZM117.01 82.38C119.65 82.42 122.28 82.46 124.92 82.5C123.38 82.2 121.84 81.91 120.29 81.61C121.7 81.74 123.1 81.87 124.5 82C125.22 81.72 125.94 81.44 126.67 81.17C126.1 83.61 127.59 89.37 125.65 91.48C123.97 93.32 115.97 94.38 114.29 92.54C113.38 91.54 113.25 89.76 112.97 88.52C112.6 86.89 111.72 84.51 112.83 83.33C114.23 83.01 115.62 82.7 117.01 82.38Z" fill="#f08e66" fill-rule="evenodd" stroke="#f08e66" stroke-width="0.25" stroke-linejoin="round"/>
</svg>